<svg xmlns="http://www.w3.org/2000/svg" width="142.585" height="104.341" viewBox="0 0 142.585 104.341">
  <g id="logo_footer" transform="translate(-4.775 -109.164)">
    <path id="パス_22" data-name="パス 22" d="M103.619,109.164c.734.141,1.469.271,2.2.423a18.2,18.2,0,0,1,7.05,2.837,7.91,7.91,0,0,1,2.807,3.17c.042.1.1.183.169.3a1.169,1.169,0,0,0,.464-.437,16.691,16.691,0,0,1,3.676-3.407,15.844,15.844,0,0,1,8.076-2.692,19.492,19.492,0,0,1,7.77,1.184,29.017,29.017,0,0,1,8.776,5.038,25.543,25.543,0,0,1,2.173,1.984c.392.407.4.469.007.872a30,30,0,0,1-9.944,6.651,20.5,20.5,0,0,1-6.163,1.519,16.13,16.13,0,0,1-10.562-2.572,18.2,18.2,0,0,1-2.294-1.838,1.337,1.337,0,0,0-.462-.35c-.164.065-.12.208-.12.322,0,2.678-.059,5.358.021,8.033.052,1.749.027,3.5.056,5.245.011.694-.063.767-.75.946a13.269,13.269,0,0,1-1.687.289c-.437.055-.544-.047-.564-.482-.007-.161,0-.322,0-.482q0-6.507,0-13.014a1.749,1.749,0,0,0-.055-.654,1.472,1.472,0,0,0-.573.4,13.669,13.669,0,0,1-4.349,2.476,24.629,24.629,0,0,1-6.41,1.41,26.6,26.6,0,0,1-10.318-1.042,15.46,15.46,0,0,1-5.121-2.614c-.138-.11-.287-.205-.421-.3-.19.064-.137.21-.147.323A11.579,11.579,0,0,0,88.7,130a14.588,14.588,0,0,0,2.671,3.119,20.135,20.135,0,0,0,4.245,2.87,27.476,27.476,0,0,0,4.723,1.871,41.737,41.737,0,0,0,6.292,1.262c.512.07,1.032.094,1.546.118,1.336.061,2.671.175,4.011.12a53.65,53.65,0,0,0,8.5-.973,48.259,48.259,0,0,0,10.224-3.279,38.2,38.2,0,0,0,7.045-4.144,28.074,28.074,0,0,0,4.766-4.521c.034-.041.065-.085.1-.127.067-.084.137-.189.256-.155.134.037.1.167.1.271a23.734,23.734,0,0,1-.525,4.834,21.663,21.663,0,0,1-4.068,8.71,22.678,22.678,0,0,1-3.424,3.524,28.631,28.631,0,0,1-8.875,4.97,38.876,38.876,0,0,1-8.066,1.867,45.894,45.894,0,0,1-8.014.267,41.553,41.553,0,0,1-11.686-2.224,33.8,33.8,0,0,1-7.905-3.884,25.211,25.211,0,0,1-4.1-3.43,17.756,17.756,0,0,1-3.66-5.493,14.391,14.391,0,0,1-1.123-4.988,14.707,14.707,0,0,1,2.136-8.218A13.431,13.431,0,0,1,85,120.675a.9.9,0,0,0,.142-1.029,4.813,4.813,0,0,1,.172-4.189,8.549,8.549,0,0,1,3.084-3.276,19.85,19.85,0,0,1,7.907-2.822,3.188,3.188,0,0,0,.992-.2Zm25.439,3.23c-.393,0-.785-.011-1.178,0a6.489,6.489,0,0,0-.689.088,12.848,12.848,0,0,0-8.611,5.092c-.325.423-.325.435.015.87a13.468,13.468,0,0,0,2.694,2.66,12.857,12.857,0,0,0,7.481,2.529,17.358,17.358,0,0,0,6.88-1.366,27.5,27.5,0,0,0,6.74-4c.042-.033.087-.064.126-.1.108-.1.133-.211.012-.32-.066-.059-.14-.11-.21-.166a26.429,26.429,0,0,0-6.057-3.7A16.748,16.748,0,0,0,129.058,112.394Zm-31.63,6c-.553,0-1.105-.008-1.658,0-.466.009-.527.09-.442.552a8.2,8.2,0,0,0,.949,2.486.717.717,0,0,0,.7.378c.75.009,1.494-.07,2.24-.113.342-.019.408-.094.414-.483.011-.766.012-1.533,0-2.3-.007-.446-.084-.513-.549-.521C98.533,118.385,97.98,118.393,97.428,118.393Zm5.947-1.3h0c.552,0,1.1.009,1.656,0,.464-.01.583-.146.483-.6a8.2,8.2,0,0,0-.926-2.436.689.689,0,0,0-.7-.383c-.745.043-1.492.065-2.238.111-.319.02-.381.091-.387.452q-.018,1.175,0,2.35c.006.427.075.492.506.5C102.306,117.1,102.841,117.093,103.375,117.093Zm-5.949,0c.552,0,1.1.01,1.656,0,.429-.01.54-.113.549-.546q.023-1.149,0-2.3c-.007-.364-.092-.449-.446-.458-.748-.018-1.5-.009-2.244-.017a.588.588,0,0,0-.567.325,8.514,8.514,0,0,0-.946,2.485c-.078.408,0,.5.449.508C96.393,117.1,96.909,117.093,97.426,117.093Zm5.977,1.3c-.534,0-1.068-.007-1.6,0-.472.008-.53.062-.536.521q-.014,1.121,0,2.243c.006.463.071.524.524.541a17.958,17.958,0,0,1,2.132.072.5.5,0,0,0,.532-.28,7.648,7.648,0,0,0,.961-2.532c.073-.445-.021-.554-.462-.564C104.436,118.384,103.92,118.393,103.4,118.393Zm5.632,0v0c-.464,0-.928-.007-1.392,0-.4.008-.467.051-.543.441a10.672,10.672,0,0,1-.869,2.746c-.147.3-.084.389.238.42.479.046.959.074,1.438.116a.875.875,0,0,0,.769-.286c.268-.287.569-.543.826-.838a6.342,6.342,0,0,0,1.191-1.955c.222-.6.189-.643-.427-.649C109.855,118.388,109.445,118.392,109.035,118.392Zm-17.127-1.3v0H93.3c.239,0,.416-.071.454-.344a9.524,9.524,0,0,1,.9-2.847c.108-.223.047-.338-.2-.364-.567-.059-1.133-.119-1.7-.172a.6.6,0,0,0-.472.214,8.449,8.449,0,0,0-1.454,1.707,4.87,4.87,0,0,0-.646,1.347c-.079.325-.009.435.328.449C90.98,117.1,91.444,117.088,91.908,117.088Zm17.151,0v0c.355,0,.711,0,1.067,0,.782,0,.816-.046.528-.774a7.507,7.507,0,0,0-2.136-2.822.564.564,0,0,0-.448-.134c-.494.051-.991.093-1.482.171-.364.058-.385.118-.233.463a10.236,10.236,0,0,1,.837,2.635c.054.37.152.445.533.455C108.169,117.1,108.614,117.092,109.059,117.092Zm-17.259,1.3v0c-.464,0-.929-.011-1.392,0-.3.01-.344.076-.273.366a3.319,3.319,0,0,0,.135.406,8,8,0,0,0,1.941,2.725.807.807,0,0,0,.687.22c.462-.039.924-.072,1.386-.113.394-.034.437-.1.253-.466a9.834,9.834,0,0,1-.877-2.687c-.071-.4-.122-.445-.521-.456C92.692,118.384,92.246,118.393,91.8,118.393Zm-1.765,3.564.074-.077c-.252-.342-.522-.673-.753-1.029a6.407,6.407,0,0,1-.862-2c-.045-.188-.08-.407-.325-.437-.225-.027-.5-.112-.666.058s-.016.406.051.6A5.792,5.792,0,0,0,90.034,121.957Zm20.9-8.289a8.637,8.637,0,0,1,1.542,3.106c.07.294.407.4.751.3.229-.069.285-.217.165-.575A5.282,5.282,0,0,0,110.933,113.668Zm-21.218.131a5.1,5.1,0,0,0-2.2,2.732c-.06.184-.123.389.109.516a.834.834,0,0,0,.713-.068.779.779,0,0,0,.162-.39,6.676,6.676,0,0,1,.829-2.013A2.252,2.252,0,0,0,89.715,113.8Zm21.437,7.9c.032,0,.073.012.093,0a5.939,5.939,0,0,0,2.107-2.557.972.972,0,0,0,.1-.464.264.264,0,0,0-.169-.246.574.574,0,0,0-.826.383,7.876,7.876,0,0,1-1.213,2.651C111.2,121.53,111.126,121.6,111.152,121.7Zm-13.5,1.469a3.561,3.561,0,0,0,1.115,1.263,1.872,1.872,0,0,0,.464.114.307.307,0,0,0,.4-.315,6.748,6.748,0,0,0,0-.8c-.023-.321-.112-.384-.453-.372-.284.01-.569.022-.852.04A1.582,1.582,0,0,0,97.65,123.167Zm.964-10.706v.01h.053c1.017.012,1.017.012.971-.979-.022-.481-.388-.689-.791-.4a4.557,4.557,0,0,0-1.073,1.09c-.123.178-.031.267.15.276C98.154,112.469,98.384,112.461,98.614,112.461Zm4.751-.122a10.615,10.615,0,0,0-1.224-1.244.692.692,0,0,0-.459-.1c-.253,0-.409.1-.413.368,0,.23-.015.462,0,.691.02.331.1.418.423.406C102.2,112.441,102.711,112.387,103.365,112.338Zm-.144,10.815a4.418,4.418,0,0,0-1.559-.138c-.224.007-.377.112-.385.35-.01.3-.01.6,0,.9a.245.245,0,0,0,.318.258.813.813,0,0,0,.449-.145A8.784,8.784,0,0,0,103.22,123.153Zm1.225,1.1c.439-.084.8-.157,1.155-.218a2.4,2.4,0,0,0,.984-.5c.071-.051.15-.108.1-.213a.182.182,0,0,0-.179-.09c-.371-.011-.741-.022-1.112-.026a.356.356,0,0,0-.286.119A3.425,3.425,0,0,0,104.445,124.251ZM94.123,112.2a8.119,8.119,0,0,0,1.35.127.249.249,0,0,0,.146-.058,2.1,2.1,0,0,0,.718-.974C95.518,111.459,94.709,111.4,94.123,112.2Zm10.473-.819c.683,1,.933,1.083,2.053.712A2.474,2.474,0,0,0,104.6,111.376Zm-8.344,12.807c-.534-1-.979-1.165-2.052-.756A3.012,3.012,0,0,0,96.252,124.183Z" transform="translate(-37.032)" fill="#2986b8"/>
    <path id="パス_23" data-name="パス 23" d="M255.456,222.536c-.2,0-.393-.011-.589-.007-.521.011-.563.057-.575.6,0,.143,0,.286,0,.428q0,3.7,0,7.391a.872.872,0,0,1-.943.863l-5.137.025s-.914-.014-.914-.864q0-3.856,0-7.712c0-.711-.01-.725-.713-.726q-3.321-.005-6.641,0c-.792,0-.795,0-.8-.813q0-2.3,0-4.606c0-.16,0-.321.011-.481a.3.3,0,0,1,.3-.311c.16-.011.321-.014.481-.014h6.534c.161,0,.321,0,.482-.008a.3.3,0,0,0,.33-.336c0-.125.007-.25.007-.375q0-3.187,0-6.373c0-.036,0-.072,0-.107-.011-.561-.046-.605-.618-.606q-4.793-.005-9.586,0c-.6,0-.673.077-.675.69-.006,1.838,0,3.677,0,5.516v16.067c0,.178.005.357,0,.536-.021.436-.554.467-.554.467s-5.639.009-6-.008-.425-.09-.45-.454c-.01-.142,0-.286,0-.428,0-8.373.019-16.745-.017-25.118a3.153,3.153,0,0,1,2.388-3.086,5.321,5.321,0,0,1,1.375-.182q8.676.007,17.352,0a4.841,4.841,0,0,1,1.983.375,3.321,3.321,0,0,1,1.524,1.376,2.3,2.3,0,0,1,.281,1.236q-.006,3.561,0,7.123c0,1.035,0,2.071,0,3.106,0,.549.039.577.574.59l.589.017Z" transform="translate(-108.096 -44.918)" fill="#332990"/>
    <path id="パス_24" data-name="パス 24" d="M4.775,202.29c2.16,0,4.32-.011,6.48-.01.541,0,.6.062.6.636q.005,3.187,0,6.373v1.37c.206.053.282-.069.364-.15,1.6-1.584,3.22-3.138,4.766-4.769.983-1.036,2.012-2.026,2.993-3.062a1.164,1.164,0,0,1,.9-.387c2.606.006,5.213,0,7.819.006.206,0,.467-.052.56.2.082.223-.133.349-.267.483q-5.182,5.192-10.37,10.38c-.757.757-1.519,1.511-2.274,2.27-.343.345-.348.36-.033.749s.643.764.975,1.137c1.233,1.387,2.474,2.765,3.7,4.156,1.675,1.9,3.337,3.812,5.01,5.714,1.1,1.246,2.2,2.482,3.3,3.729.12.136.362.259.235.485-.11.2-.542.135-.542.135l-7.012-.062a3.571,3.571,0,0,1-1.682-.737c-1.706-1.968-3.416-3.931-5.159-5.867-.943-1.047-1.849-2.127-2.8-3.166-.12-.131-.231-.269-.381-.445a1.012,1.012,0,0,0-.1.627q-.006,4.392,0,8.783c0,.794-.006.8-.813.8q-2.839,0-5.677,0c-.2,0-.392-.017-.588-.026Z" transform="translate(0 -44.812)" fill="#332990"/>
    <path id="パス_25" data-name="パス 25" d="M176.249,292.02a.734.734,0,0,1,.15-.933c.826-.81,1.518-1.749,2.425-2.484.4-.324.745-.716,1.116-1.077a3.047,3.047,0,0,1,.272-.257,6.406,6.406,0,0,0,1.983-3.451c.037-.117.076-.259-.035-.352s-.243-.008-.343.055a3.3,3.3,0,0,0-.567.4,5.347,5.347,0,0,1-1.51,1.086,1.389,1.389,0,0,0-.369.3,2.181,2.181,0,0,1-1.773.587c-.486-.029-.693-.263-.713-.757-.011-.267,0-.535,0-.8,0-.189.077-.427-.129-.538s-.38.063-.536.163c-.375.24-.734.506-1.094.77a5.665,5.665,0,0,1-1.368.829,2.506,2.506,0,0,1-1.255.181,8.343,8.343,0,0,0-.854-.048,1.945,1.945,0,0,1-1.935-1.48c-.021-.068-.032-.14-.056-.206-.113-.306-.2-.348-.463-.151a6.333,6.333,0,0,0-1.135.89,1.851,1.851,0,0,1-1.537.61,4.32,4.32,0,0,1-1-.148,1.826,1.826,0,0,1-1.334-1.132c-.06-.149-.122-.3-.177-.448-.228-.633-.316-.658-.831-.243a1.194,1.194,0,0,0-.31.364,1.516,1.516,0,0,1-.335.415c-.669.59-1.331,1.188-2.013,1.761a3.1,3.1,0,0,1-1.213.662,1.889,1.889,0,0,1-.742.059c-.813-.114-1.129-.534-.9-1.458.059-.235.245-.431.244-.682-.15-.076-.222.023-.3.084a3.613,3.613,0,0,1-.839.468,1.617,1.617,0,0,1-2.168-.682,5.08,5.08,0,0,0-.807-.922.565.565,0,0,0-.685-.127,1.675,1.675,0,0,0-.293.13,9.778,9.778,0,0,0-1.815,1.3,13.2,13.2,0,0,1-1.678,1.412,1.6,1.6,0,0,1-1.251.369c-.386-.056-.518-.2-.55-.6a1.859,1.859,0,0,1,.149-.835c.284-.732.568-1.464.846-2.2.053-.14.2-.309.032-.435-.149-.109-.312.024-.438.113-.262.185-.514.385-.76.591a3.055,3.055,0,0,1-.707.478.775.775,0,0,0-.343.25,3.629,3.629,0,0,1-.892.756,5.044,5.044,0,0,1-3.222.924,1.77,1.77,0,0,1-1.719-1.059,1.826,1.826,0,0,0-.155-.281c-.165-.227-.341-.289-.54-.093a11.219,11.219,0,0,1-1.86,1.15,3.1,3.1,0,0,1-2.221.36,1.2,1.2,0,0,1-.973-.758,6.134,6.134,0,0,0-.757-1.161.424.424,0,0,0-.645-.161,3.289,3.289,0,0,0-.616.422,13.446,13.446,0,0,1-4.052,2.245,1.56,1.56,0,0,1-1.1-.042.467.467,0,0,1-.321-.638,2.737,2.737,0,0,1,.256-.587,9.682,9.682,0,0,0,.627-1.535,2.544,2.544,0,0,0,.141-1.16.65.65,0,0,0-1.063-.541,4.424,4.424,0,0,0-.961.676,6.289,6.289,0,0,1-1.243,1,4.152,4.152,0,0,0-.9.671c-.171.181-.294.124-.437-.042a.765.765,0,0,1,.139-1.3,3.386,3.386,0,0,1,.449-.291,5.548,5.548,0,0,0,1.54-1.466.564.564,0,0,0,.158-.492.485.485,0,0,1,.262-.536,5.671,5.671,0,0,1,1.04-.548,1.6,1.6,0,0,1,1.443.123,7.557,7.557,0,0,1,.974.657,2.412,2.412,0,0,1,.472,3.111,2.461,2.461,0,0,0-.33.785c-.029.183.046.281.243.219a.905.905,0,0,0,.243-.111,10.268,10.268,0,0,0,1.691-1.209,5.831,5.831,0,0,1,.748-.605,11.994,11.994,0,0,0,1.564-1.205,1.225,1.225,0,0,1,1.863.42,2.338,2.338,0,0,1,.171.617,6.476,6.476,0,0,0,.4,1.387.617.617,0,0,0,.849.423,3.653,3.653,0,0,0,1.468-.849c.079-.071.132-.175.219-.232a2.117,2.117,0,0,0,.866-1.38,4.351,4.351,0,0,1,1.528-2.336c.211-.166.413-.338.615-.515a2.269,2.269,0,0,1,2.059-.479,1.193,1.193,0,0,1,.744,1.5,5.12,5.12,0,0,1-1.78,2.289c-.27.233-.569.434-.832.674-.422.385-.321.853.233,1.006a2.923,2.923,0,0,0,2.835-.652c.473-.408.964-.793,1.442-1.194.629-.528,1.262-1.049,1.873-1.6a3.147,3.147,0,0,1,1.459-.747,1.613,1.613,0,0,1,.638-.016.717.717,0,0,1,.683.755,3.641,3.641,0,0,1-.447,1.8c-.2.492-.367,1-.6,1.507a11.147,11.147,0,0,0,.92-.728,6.973,6.973,0,0,1,2.089-1.452c.049-.021.1-.043.148-.062a1.681,1.681,0,0,1,2.417,1.036c.089.214.146.442.246.65a.6.6,0,0,0,1.007.231,3.925,3.925,0,0,1,1.572-.975.7.7,0,0,0,.223-.145c1.029-.913,2.169-1.683,3.275-2.494a3.979,3.979,0,0,1,1.547-.824.44.44,0,0,0,.328-.314c.223-.561.467-1.114.7-1.671a20.268,20.268,0,0,1,1.711-2.84,4.8,4.8,0,0,1,.692-.742.9.9,0,0,1,.592-.216.539.539,0,0,1,.677.509,2.269,2.269,0,0,1-.125,1.21c-.336.842-.657,1.69-.994,2.53a3.634,3.634,0,0,1-.269.461,7.084,7.084,0,0,0-.907,1.8,13.188,13.188,0,0,1-.479,1.3,2.217,2.217,0,0,0,.389,2.445.962.962,0,0,0,1.342.2,1.431,1.431,0,0,0,.384-.287,4.324,4.324,0,0,1,1.019-.858.64.64,0,0,0,.3-.529,12.449,12.449,0,0,1,1.455-4.891,15.675,15.675,0,0,1,2.8-4.086,1.726,1.726,0,0,1,1.3-.52.978.978,0,0,1,1.049,1.181,10.8,10.8,0,0,1-1.391,4.233c-.4.662-.849,1.312-1.31,1.947-.58.8-1.261,1.5-1.879,2.258a1.393,1.393,0,0,0,.146,1.588,1.557,1.557,0,0,0,1.169.567,3.258,3.258,0,0,0,2.365-.825,2.579,2.579,0,0,1,.718-.451,8.343,8.343,0,0,0,2.078-1.49,2.28,2.28,0,0,1,1.146-.539c.648-.086.952.265.784.892-.056.206-.138.405-.21.607-.109.3-.231.6-.326.907-.06.194-.228.433-.023.6.184.146.356-.074.524-.158a16.988,16.988,0,0,0,2.6-1.87c.284-.218.573-.424.873-.617a2.011,2.011,0,0,0,.422-.326,1.684,1.684,0,0,1,1.579-.447.409.409,0,0,1,.377.537,2.614,2.614,0,0,1-.149.457,22.8,22.8,0,0,1-1.23,2.79c-.05.093-.088.192-.141.311.163.076.247-.041.337-.1.45-.288.9-.584,1.345-.876.3-.2.41-.168.592.148.336.582.338.584-.227,1a3.32,3.32,0,0,1-.5.314,14.391,14.391,0,0,0-2.846,1.987,11.241,11.241,0,0,0-1.489,1.82,18.826,18.826,0,0,1-2.113,2.27,5.337,5.337,0,0,1-1.21.783c-.126.065-.246.141-.369.212ZM160.215,284.3a.122.122,0,0,0,.145-.019,12.406,12.406,0,0,0,3.215-3.162c.084-.121.18-.268.053-.429A10.191,10.191,0,0,0,160.215,284.3Zm11.273-4.24a11.115,11.115,0,0,0,1.5-1.856,4,4,0,0,0,.77-2.273,3.152,3.152,0,0,0-1.1,1.418,5.519,5.519,0,0,1-.542,1.15A14.181,14.181,0,0,0,171.488,280.064Zm-28.355.274a1.577,1.577,0,0,0-1.058,1.153C142.437,281.113,142.993,280.923,143.133,280.337Z" transform="translate(-57.063 -78.514)" fill="#2986b8"/>
    <path id="パス_26" data-name="パス 26" d="M57.235,218.36q0-6.239,0-12.479a3.146,3.146,0,0,1,.56-1.97,3.681,3.681,0,0,1,2.722-1.4,3.938,3.938,0,0,1,.428-.007q8.73,0,17.459,0a4.254,4.254,0,0,1,2.489.679,2.784,2.784,0,0,1,1.22,1.871,5.867,5.867,0,0,1,.075,1.067q0,4.633,0,9.265c0,.125,0,.25,0,.375.015.49.062.534.57.546.817.019.819.019.82.821q0,2.222,0,4.445c0,.143,0,.286-.008.428-.034.39-.133.483-.535.522a.3.3,0,0,1-.053,0c-.936-.049-.793.237-.793.874q-.005,3.8,0,7.605a.812.812,0,0,1-.888.8l-5.62.005s-.51-.094-.545-.487c-.014-.159-.007-.321-.007-.482q0-3.614,0-7.23c0-.107,0-.214,0-.322,0-.742-.018-.76-.742-.76q-3.213,0-6.427,0c-.976,0-.976,0-.976-.967q0-2.223,0-4.445c0-.143,0-.286.007-.428a.353.353,0,0,1,.408-.383c.143,0,.286,0,.428,0h6.427c.089,0,.178,0,.268,0,.561-.011.6-.045.6-.619q.006-3.267,0-6.534c0-.6-.048-.652-.633-.653q-4.793,0-9.587,0c-.537,0-.582.053-.594.578-.005.232,0,.464,0,.7v21.1c0,.107,0,.214,0,.322-.011.573-.711.64-.711.64l-5.833-.031s-.479-.058-.519-.434a4.654,4.654,0,0,1-.009-.481Q57.234,224.626,57.235,218.36Z" transform="translate(-25.245 -44.919)" fill="#332990"/>
    <path id="パス_27" data-name="パス 27" d="M137.8,214.52q2.946,0,5.891,0c.624,0,.665.031.788.625a11.794,11.794,0,0,1-2.626,10.305,15.286,15.286,0,0,1-5.19,4.057,18.439,18.439,0,0,1-6.143,1.767,19.855,19.855,0,0,1-6.8-.4,17.127,17.127,0,0,1-7.172-3.57,12.973,12.973,0,0,1-4.186-6.156,11.351,11.351,0,0,1,.009-6.955,13.282,13.282,0,0,1,5.124-6.869,16.954,16.954,0,0,1,3.616-2.063,19.96,19.96,0,0,1,4.918-1.231,22.091,22.091,0,0,1,3.475-.092,17.891,17.891,0,0,1,5.632,1.2c.4.147.416.233.207.643-.534,1.051-1.177,2.04-1.763,3.061q-.44.766-.9,1.524c-.253.422-.284.434-.718.278a10.762,10.762,0,0,0-6.532-.247,8.83,8.83,0,0,0-5.147,3.442,6.347,6.347,0,0,0-.588,6.7,8.009,8.009,0,0,0,4.133,3.874,10.656,10.656,0,0,0,5.378.924,9.636,9.636,0,0,0,6.624-3.21,8.614,8.614,0,0,0,.731-.989c.16-.241.094-.345-.2-.374-.159-.015-.321-.009-.481-.009-1.339,0-2.678,0-4.017,0-.561,0-.611-.054-.612-.617q0-2.491,0-4.981c0-.585.043-.623.656-.625Q134.858,214.517,137.8,214.52Z" transform="translate(-51.517 -45.597)" fill="#332990"/>
    <path id="パス_28" data-name="パス 28" d="M180.088,215.8q0-6.321,0-12.64c0-.845.013-.856.877-.856h5.41c.143,0,.286-.005.428.006.381.03.453.1.477.5.011.178,0,.357,0,.535q0,10.712,0,21.424c0,.879,0,.881.882.881h13.818c.819,0,.82,0,.821.839q0,2.2,0,4.392c0,.143.006.286-.007.428-.033.347-.479.418-.479.418s-18.556.086-19.325-.063a3.792,3.792,0,0,1-2.107-1.078,2.82,2.82,0,0,1-.8-2.037c.006-2.714,0-5.427,0-8.141Z" transform="translate(-84.368 -44.824)" fill="#332990"/>
    <path id="パス_29" data-name="パス 29" d="M61.921,279.913a3.212,3.212,0,0,1,1.931-.1,1.328,1.328,0,0,1,.953.979,2.321,2.321,0,0,1-.363,2.08c-.068.1-.2.189-.142.325.066.156.209.073.328.067.274-.013.5.209.652.591.109.272-.071.385-.24.523a3.623,3.623,0,0,1-1.211.668,1.164,1.164,0,0,1-1.032-.055.406.406,0,0,0-.53.061,5.446,5.446,0,0,1-2.927,1.048,1.992,1.992,0,0,1-2.068-1.423,1.727,1.727,0,0,1,.03-.688c.032-.168.148-.332.033-.538a1.468,1.468,0,0,0-.857.476,6.871,6.871,0,0,1-2.129,1.307,2.084,2.084,0,0,0-.458.271,5.8,5.8,0,0,1-3.645,1.019,3.139,3.139,0,0,1-1.832-.806,1.137,1.137,0,0,1-.435-.941c0-.235-.084-.316-.333-.218a22.337,22.337,0,0,0-2.11.766,4.572,4.572,0,0,1-.934.223l-2.373.658a1.149,1.149,0,0,1-.308.084,21.622,21.622,0,0,1-2.968.033c-.107-.018-.259-.035-.282-.126-.093-.367-.382-.518-.662-.7a.561.561,0,0,1-.189-.534c.019-.3.057-.6.086-.905a27.64,27.64,0,0,1,.513-3.915,1.416,1.416,0,0,0,.044-.424,5.284,5.284,0,0,1,.355-2.042c.222-.678.409-1.368.6-2.055a1.952,1.952,0,0,1,.57-.949,3.026,3.026,0,0,0,.658-.7.7.7,0,0,1,.335-.259c.73-.338,1.411-.764,2.106-1.166a2.376,2.376,0,0,1,1.121-.328c.855-.023,1.7-.183,2.562-.147a3.888,3.888,0,0,1,.844.128.887.887,0,0,1,.688.8,1.818,1.818,0,0,1-.088.845c-.176.534-.509.743-1.027.546a5.764,5.764,0,0,0-3.514-.1,1.822,1.822,0,0,1-.263.045,1.294,1.294,0,0,0-1.364,1.1c-.228,1.13-.817,2.132-1.058,3.251-.011.052-.038.1-.054.151-.033.1-.059.216.034.3s.2.031.292-.027a8.652,8.652,0,0,1,5-1.024.958.958,0,0,1,.921.621,1.2,1.2,0,0,1-.19,1.118.58.58,0,0,1-.632.193,13.935,13.935,0,0,0-4.1.115,3.3,3.3,0,0,0-1.59.592c-.13.1-.29.183-.33.34a5.143,5.143,0,0,0-.346,1.757,5.718,5.718,0,0,1-.165,1.107c-.049.487-.059.491.405.486.518,0,1.035-.007,1.553,0a4.131,4.131,0,0,0,1.477-.189,2.075,2.075,0,0,1,.787-.14,5.225,5.225,0,0,0,1.941-.323c.386-.136.784-.242,1.177-.36a1.1,1.1,0,0,0,.57-.377,1.88,1.88,0,0,1,.62-.5c.841-.439,1.6-1.008,2.391-1.524a5.508,5.508,0,0,1,1.379-.7,1.858,1.858,0,0,0,.475-.241,4.752,4.752,0,0,1,1.853-.657c.42-.072.594.094.618.517a1.181,1.181,0,0,1-.868,1.364,18.589,18.589,0,0,0-3.1,1.667,2.066,2.066,0,0,0-.563.488A.908.908,0,0,0,51.1,285a3.115,3.115,0,0,0,1.92-.325c.431-.212.846-.457,1.289-.65a6.4,6.4,0,0,0,1.514-1.089c.109-.092.2-.228.321-.279a12.251,12.251,0,0,0,2.07-1.414c.693-.469,1.344-1,1.99-1.533a1.606,1.606,0,0,1,1.193-.361C61.8,279.375,61.849,279.425,61.921,279.913ZM60.4,284.6a1.972,1.972,0,0,0,1.288-.537,6.7,6.7,0,0,1,.543-.509,1.829,1.829,0,0,0,.644-1.016.724.724,0,0,0-.509-.957.816.816,0,0,0-.921.227c-.241.257-.438.6-.792.7a1.568,1.568,0,0,0-1.026,1.256C59.45,284.34,59.67,284.6,60.4,284.6Z" transform="translate(-15.902 -78.397)" fill="#2986b8"/>
    <path id="パス_30" data-name="パス 30" d="M104.41,285.737c0-.65.077-1.121.051-1.572-.051-.878.17-1.733.131-2.6-.011-.259-.128-.307-.342-.254-.1.026-.206.059-.31.085a.246.246,0,0,1-.288-.081.249.249,0,0,1,.02-.3c.225-.3.391-.654.759-.807a.788.788,0,0,0,.508-.851,4.174,4.174,0,0,1,.286-1.623,1.941,1.941,0,0,0,.1-.52,4.024,4.024,0,0,1,1.515-3.117c.311-.238.6-.5.932-.717a4.029,4.029,0,0,1,2.33-.647,7.1,7.1,0,0,0,1.276-.092,5.26,5.26,0,0,1,1.331.049,1.048,1.048,0,0,1,.5.184.513.513,0,0,1,.266.492,5.4,5.4,0,0,1-.239,1.312c-.14.359-.286.435-.661.352a2.333,2.333,0,0,1-.406-.131,1.852,1.852,0,0,0-1.04-.13,7.947,7.947,0,0,0-1.218.057.4.4,0,0,1-.106.016,1.986,1.986,0,0,0-1.8,1.572c-.261.72-.467,1.46-.694,2.193a1.968,1.968,0,0,0-.1.414c-.02.246.089.331.321.262a16.24,16.24,0,0,1,3.47-.535,6.245,6.245,0,0,1,1.7.02c.576.114.723.282.7.87a2.527,2.527,0,0,1-.149.786c-.118.314-.238.381-.574.336s-.67-.108-1.006-.148a12.9,12.9,0,0,0-3.087.15,10.621,10.621,0,0,1-1.218.165.633.633,0,0,0-.654.524,2.169,2.169,0,0,0-.132.945.757.757,0,0,1-.006.318,24.055,24.055,0,0,0-.394,3.068,8.847,8.847,0,0,0-.068,1.013,2.237,2.237,0,0,1-.03.426.743.743,0,0,1-.69.635.918.918,0,0,1-.878-.65A6.013,6.013,0,0,1,104.41,285.737Z" transform="translate(-47.564 -78.656)" fill="#2986b8"/>
    <path id="パス_31" data-name="パス 31" d="M145.573,281.327h-.015c-.314,0-.622-.017-.73-.39a.979.979,0,0,1,.191-1.041,8.643,8.643,0,0,1,1.42-1.111,1.605,1.605,0,0,1,1.13-.217.487.487,0,0,1,.444.686c-.06.223-.139.441-.218.658A2.038,2.038,0,0,1,145.573,281.327Z" transform="translate(-67.369 -81.516)" fill="#2986b8"/>
  </g>
</svg>
